<svg width="61" height="28" viewBox="0 0 61 28" fill="none" xmlns="http://www.w3.org/2000/svg">
<path d="M5.2 2.6C5.84889 2.6 6.43556 2.73333 6.96 3C7.48444 3.26667 7.89778 3.64889 8.2 4.14667C8.51111 4.64444 8.66667 5.21778 8.66667 5.86667C8.66667 6.54222 8.51111 7.13333 8.2 7.64C7.89778 8.13778 7.48444 8.52444 6.96 8.8C6.43556 9.06667 5.84889 9.2 5.2 9.2H3.2V12.9333H0.733333V2.6H5.2ZM3.2 7.33333H4.8C5.19111 7.33333 5.53333 7.2 5.82667 6.93333C6.12 6.66667 6.26667 6.31111 6.26667 5.86667C6.26667 5.44889 6.12 5.11111 5.82667 4.85333C5.53333 4.59556 5.19111 4.46667 4.8 4.46667H3.2V7.33333ZM13.9378 2.6C14.6133 2.6 15.2133 2.73333 15.7378 3C16.2711 3.25778 16.68 3.61778 16.9644 4.08C17.2578 4.54222 17.4044 5.07111 17.4044 5.66667C17.4044 6.42222 17.1778 7.05778 16.7244 7.57333C16.2711 8.08889 15.6533 8.43111 14.8711 8.6L18.0711 12.9333H15.2044L12.2711 8.66667H12.0711V12.9333H9.60443V2.6H13.9378ZM12.0711 6.93333H13.6044C14.0311 6.93333 14.36 6.82222 14.5911 6.6C14.8222 6.37778 14.9378 6.06667 14.9378 5.66667C14.9378 5.32 14.8178 5.03556 14.5778 4.81333C14.3466 4.58222 14.0222 4.46667 13.6044 4.46667H12.0711V6.93333ZM23.5927 13.0667C22.5616 13.0667 21.6283 12.8356 20.7927 12.3733C19.966 11.9111 19.3127 11.2756 18.8327 10.4667C18.3616 9.64889 18.126 8.73778 18.126 7.73333C18.126 6.74667 18.3616 5.84889 18.8327 5.04C19.3127 4.22222 19.966 3.57778 20.7927 3.10667C21.6283 2.63556 22.5616 2.4 23.5927 2.4C24.5972 2.4 25.5127 2.63556 26.3394 3.10667C27.166 3.57778 27.8149 4.22222 28.286 5.04C28.7572 5.84889 28.9927 6.74667 28.9927 7.73333C28.9927 8.73778 28.7572 9.64889 28.286 10.4667C27.8149 11.2756 27.166 11.9111 26.3394 12.3733C25.5216 12.8356 24.606 13.0667 23.5927 13.0667ZM23.5927 10.8667C24.4638 10.8667 25.1572 10.5867 25.6727 10.0267C26.1972 9.45778 26.4594 8.69333 26.4594 7.73333C26.4594 7.13778 26.3394 6.60889 26.0994 6.14667C25.8683 5.67556 25.5349 5.31111 25.0994 5.05333C24.6638 4.79556 24.1616 4.66667 23.5927 4.66667C22.9972 4.66667 22.4727 4.79556 22.0194 5.05333C21.566 5.31111 21.2149 5.67556 20.966 6.14667C20.7172 6.60889 20.5927 7.13778 20.5927 7.73333C20.5927 8.37333 20.7172 8.92889 20.966 9.4C21.2149 9.87111 21.566 10.2356 22.0194 10.4933C22.4727 10.7422 22.9972 10.8667 23.5927 10.8667ZM31.7951 2.6L35.3284 8.06667L38.9284 2.6H39.9951C40.2262 2.6 40.3951 2.65333 40.5017 2.76C40.6084 2.86667 40.6617 3.03556 40.6617 3.26667V12.9333H38.1951V7.46667L36.1284 10.6H34.5284L32.4617 7.4V12.9333H29.9951V2.6H31.7951ZM46.4573 2.6C47.1328 2.6 47.7328 2.73333 48.2573 3C48.7906 3.25778 49.1995 3.61778 49.484 4.08C49.7773 4.54222 49.924 5.07111 49.924 5.66667C49.924 6.42222 49.6973 7.05778 49.244 7.57333C48.7906 8.08889 48.1728 8.43111 47.3906 8.6L50.5906 12.9333H47.724L44.7906 8.66667H44.5906V12.9333H42.124V2.6H46.4573ZM44.5906 6.93333H46.124C46.5506 6.93333 46.8795 6.82222 47.1106 6.6C47.3417 6.37778 47.4573 6.06667 47.4573 5.66667C47.4573 5.32 47.3373 5.03556 47.0973 4.81333C46.8662 4.58222 46.5417 4.46667 46.124 4.46667H44.5906V6.93333Z" fill="#004EF9"/>
<path d="M3.5 19.2C3.93333 19.2 4.32333 19.29 4.67 19.47C5.02333 19.65 5.3 19.9067 5.5 20.24C5.7 20.5733 5.8 20.96 5.8 21.4C5.8 21.84 5.7 22.2267 5.5 22.56C5.3 22.8933 5.02333 23.15 4.67 23.33C4.32333 23.51 3.93333 23.6 3.5 23.6H1.75V26.45H0.7V19.2H3.5ZM1.75 22.75H3.35C3.75667 22.75 4.09 22.63 4.35 22.39C4.61667 22.1433 4.75 21.8133 4.75 21.4C4.75 21.0067 4.61667 20.6933 4.35 20.46C4.09 20.22 3.75667 20.1 3.35 20.1H1.75V22.75ZM8.67715 26.55C8.17048 26.55 7.71382 26.4367 7.30715 26.21C6.90715 25.99 6.59382 25.6833 6.36715 25.29C6.14048 24.89 6.02715 24.4433 6.02715 23.95C6.02715 23.4567 6.13715 23.0133 6.35715 22.62C6.58382 22.22 6.89048 21.91 7.27715 21.69C7.66382 21.4633 8.09715 21.35 8.57715 21.35C9.03715 21.35 9.44715 21.4567 9.80715 21.67C10.1738 21.8833 10.4605 22.1767 10.6671 22.55C10.8738 22.9233 10.9771 23.34 10.9771 23.8C10.9771 24 10.9605 24.1667 10.9271 24.3H7.02715C7.10048 24.72 7.28715 25.05 7.58715 25.29C7.88715 25.53 8.25048 25.65 8.67715 25.65C8.95715 25.65 9.21382 25.6 9.44715 25.5C9.68715 25.3933 9.88048 25.2433 10.0271 25.05L10.6771 25.65C10.4505 25.93 10.1605 26.15 9.80715 26.31C9.45382 26.47 9.07715 26.55 8.67715 26.55ZM8.57715 22.25C8.17048 22.25 7.82715 22.36 7.54715 22.58C7.27382 22.8 7.10048 23.1067 7.02715 23.5H9.97715C9.95048 23.1067 9.81048 22.8 9.55715 22.58C9.31048 22.36 8.98382 22.25 8.57715 22.25ZM12.7297 21.45V22C12.883 21.7933 13.0797 21.6333 13.3197 21.52C13.5664 21.4067 13.8364 21.35 14.1297 21.35C14.6097 21.35 14.993 21.5167 15.2797 21.85L14.6297 22.6C14.4297 22.4 14.1797 22.3 13.8797 22.3C13.5264 22.3 13.2464 22.4133 13.0397 22.64C12.833 22.86 12.7297 23.18 12.7297 23.6V26.45H11.6797V21.45H12.7297ZM15.132 22.4L15.082 21.45H16.332V20.8C16.332 20.4333 16.4087 20.1067 16.562 19.82C16.722 19.5333 16.9454 19.31 17.232 19.15C17.5187 18.9833 17.852 18.9 18.232 18.9C18.5187 18.9 18.7687 18.9467 18.982 19.04C19.202 19.1267 19.402 19.2633 19.582 19.45L18.932 20.1C18.8387 20.0067 18.7387 19.9433 18.632 19.91C18.5254 19.87 18.392 19.85 18.232 19.85C17.952 19.85 17.732 19.9267 17.572 20.08C17.412 20.2333 17.332 20.4567 17.332 20.75V21.45H18.932V22.4H17.332V26.45H16.332V22.4H15.132ZM21.5559 26.55C21.0625 26.55 20.6192 26.4333 20.2259 26.2C19.8325 25.9733 19.5225 25.6633 19.2959 25.27C19.0692 24.87 18.9559 24.43 18.9559 23.95C18.9559 23.47 19.0692 23.0333 19.2959 22.64C19.5225 22.24 19.8325 21.9267 20.2259 21.7C20.6192 21.4667 21.0625 21.35 21.5559 21.35C22.0492 21.35 22.4959 21.4667 22.8959 21.7C23.3025 21.9267 23.6225 22.24 23.8559 22.64C24.0892 23.0333 24.2059 23.47 24.2059 23.95C24.2059 24.4233 24.0859 24.86 23.8459 25.26C23.6059 25.6533 23.2825 25.9667 22.8759 26.2C22.4759 26.4333 22.0359 26.55 21.5559 26.55ZM21.5559 25.55C21.8559 25.55 22.1259 25.48 22.3659 25.34C22.6125 25.1933 22.8059 24.9967 22.9459 24.75C23.0859 24.4967 23.1559 24.2133 23.1559 23.9C23.1559 23.6067 23.0859 23.3433 22.9459 23.11C22.8059 22.87 22.6125 22.6833 22.3659 22.55C22.1259 22.4167 21.8559 22.35 21.5559 22.35C21.1025 22.35 20.7292 22.5 20.4359 22.8C20.1492 23.0933 20.0059 23.4767 20.0059 23.95C20.0059 24.4233 20.1492 24.81 20.4359 25.11C20.7292 25.4033 21.1025 25.55 21.5559 25.55ZM25.9572 21.45V22C26.1106 21.7933 26.3072 21.6333 26.5472 21.52C26.7939 21.4067 27.0639 21.35 27.3572 21.35C27.8372 21.35 28.2206 21.5167 28.5072 21.85L27.8572 22.6C27.6572 22.4 27.4072 22.3 27.1072 22.3C26.7539 22.3 26.4739 22.4133 26.2672 22.64C26.0606 22.86 25.9572 23.18 25.9572 23.6V26.45H24.9072V21.45H25.9572ZM30.0529 21.45V22.05C30.2263 21.8233 30.4429 21.65 30.7029 21.53C30.9696 21.41 31.2529 21.35 31.5529 21.35C31.8996 21.35 32.2063 21.43 32.4729 21.59C32.7396 21.75 32.9496 21.97 33.1029 22.25C33.2829 21.97 33.5163 21.75 33.8029 21.59C34.0896 21.43 34.4063 21.35 34.7529 21.35C35.1196 21.35 35.4496 21.43 35.7429 21.59C36.0429 21.75 36.2763 21.9767 36.4429 22.27C36.6163 22.5633 36.7029 22.9067 36.7029 23.3V26.45H35.6529V23.45C35.6529 23.1033 35.5496 22.8267 35.3429 22.62C35.1429 22.4067 34.8796 22.3 34.5529 22.3C34.2196 22.3 33.9429 22.4067 33.7229 22.62C33.5096 22.8267 33.4029 23.1033 33.4029 23.45V26.45H32.3529V23.45C32.3529 23.1033 32.2496 22.8267 32.0429 22.62C31.8429 22.4067 31.5796 22.3 31.2529 22.3C30.9196 22.3 30.6363 22.4067 30.4029 22.62C30.1696 22.8333 30.0529 23.11 30.0529 23.45V26.45H29.0029V21.45H30.0529ZM39.7486 26.55C39.2886 26.55 38.872 26.4333 38.4986 26.2C38.1253 25.9733 37.832 25.6633 37.6186 25.27C37.4053 24.87 37.2986 24.43 37.2986 23.95C37.2986 23.4567 37.4053 23.0133 37.6186 22.62C37.832 22.22 38.1253 21.91 38.4986 21.69C38.872 21.4633 39.2886 21.35 39.7486 21.35C40.0953 21.35 40.412 21.42 40.6986 21.56C40.992 21.7 41.2253 21.8967 41.3986 22.15V21.45H42.3986V26.45H41.3986V25.75C41.2253 26.0033 40.992 26.2 40.6986 26.34C40.412 26.48 40.0953 26.55 39.7486 26.55ZM39.8986 25.55C40.3453 25.55 40.7053 25.4033 40.9786 25.11C41.2586 24.81 41.3986 24.4233 41.3986 23.95C41.3986 23.4567 41.262 23.0667 40.9886 22.78C40.7153 22.4933 40.352 22.35 39.8986 22.35C39.4453 22.35 39.072 22.5 38.7786 22.8C38.492 23.0933 38.3486 23.4767 38.3486 23.95C38.3486 24.4233 38.492 24.81 38.7786 25.11C39.072 25.4033 39.4453 25.55 39.8986 25.55ZM44.5021 21.45V22.1C44.6821 21.8733 44.9121 21.6933 45.1921 21.56C45.4788 21.42 45.7821 21.35 46.1021 21.35C46.4555 21.35 46.7755 21.4433 47.0621 21.63C47.3555 21.8167 47.5855 22.0633 47.7521 22.37C47.9188 22.6767 48.0021 23.0033 48.0021 23.35V26.45H46.9521V23.55C46.9521 23.17 46.8455 22.8667 46.6321 22.64C46.4188 22.4133 46.1255 22.3 45.7521 22.3C45.4055 22.3 45.1088 22.42 44.8621 22.66C44.6221 22.9 44.5021 23.1967 44.5021 23.55V26.45H43.4521V21.45H44.5021ZM51.2514 26.55C50.758 26.55 50.308 26.4333 49.9014 26.2C49.5014 25.9733 49.1847 25.6633 48.9514 25.27C48.718 24.87 48.6014 24.43 48.6014 23.95C48.6014 23.4567 48.718 23.0133 48.9514 22.62C49.1847 22.22 49.5014 21.91 49.9014 21.69C50.308 21.4633 50.758 21.35 51.2514 21.35C51.618 21.35 51.9614 21.42 52.2814 21.56C52.6014 21.7 52.8747 21.8967 53.1014 22.15L52.4514 22.85C52.1647 22.5167 51.7647 22.35 51.2514 22.35C50.9514 22.35 50.678 22.42 50.4314 22.56C50.1914 22.6933 50.0014 22.88 49.8614 23.12C49.7214 23.36 49.6514 23.6367 49.6514 23.95C49.6514 24.2633 49.7214 24.54 49.8614 24.78C50.0014 25.02 50.1914 25.21 50.4314 25.35C50.678 25.4833 50.9514 25.55 51.2514 25.55C51.7647 25.55 52.1647 25.3833 52.4514 25.05L53.1514 25.7C52.638 26.2667 52.0047 26.55 51.2514 26.55ZM55.9535 26.55C55.4468 26.55 54.9902 26.4367 54.5835 26.21C54.1835 25.99 53.8702 25.6833 53.6435 25.29C53.4168 24.89 53.3035 24.4433 53.3035 23.95C53.3035 23.4567 53.4135 23.0133 53.6335 22.62C53.8602 22.22 54.1668 21.91 54.5535 21.69C54.9402 21.4633 55.3735 21.35 55.8535 21.35C56.3135 21.35 56.7235 21.4567 57.0835 21.67C57.4502 21.8833 57.7368 22.1767 57.9435 22.55C58.1502 22.9233 58.2535 23.34 58.2535 23.8C58.2535 24 58.2368 24.1667 58.2035 24.3H54.3035C54.3768 24.72 54.5635 25.05 54.8635 25.29C55.1635 25.53 55.5268 25.65 55.9535 25.65C56.2335 25.65 56.4902 25.6 56.7235 25.5C56.9635 25.3933 57.1568 25.2433 57.3035 25.05L57.9535 25.65C57.7268 25.93 57.4368 26.15 57.0835 26.31C56.7302 26.47 56.3535 26.55 55.9535 26.55ZM55.8535 22.25C55.4468 22.25 55.1035 22.36 54.8235 22.58C54.5502 22.8 54.3768 23.1067 54.3035 23.5H57.2535C57.2268 23.1067 57.0868 22.8 56.8335 22.58C56.5868 22.36 56.2602 22.25 55.8535 22.25Z" fill="black"/>
</svg>
